<mxfile host="Electron" agent="Mozilla/5.0 (Windows NT 10.0; Win64; x64) AppleWebKit/537.36 (KHTML, like Gecko) draw.io/26.0.9 Chrome/128.0.6613.186 Electron/32.2.5 Safari/537.36" version="26.0.9">
  <diagram name="Page-1" id="dnWIH1gGBtosZdEnx6zY">
    <mxGraphModel dx="422" dy="272" grid="1" gridSize="10" guides="1" tooltips="1" connect="1" arrows="1" fold="1" page="1" pageScale="1" pageWidth="570" pageHeight="940" math="0" shadow="0">
      <root>
        <mxCell id="0" />
        <mxCell id="1" parent="0" />
        <mxCell id="Lim5dA6-5LxW8TxhvyU3-41" value="" style="verticalLabelPosition=bottom;verticalAlign=top;html=1;shape=mxgraph.basic.pie;fillColor=#ffe6cc;strokeColor=#d79b00;startAngle=0.75;endAngle=0;connectable=0;" vertex="1" parent="1">
          <mxGeometry x="140" y="100" width="140" height="140" as="geometry" />
        </mxCell>
        <mxCell id="Lim5dA6-5LxW8TxhvyU3-42" value="" style="verticalLabelPosition=bottom;verticalAlign=top;html=1;shape=mxgraph.basic.pie;fillColor=#dae8fc;strokeColor=#6c8ebf;startAngle=0.75;endAngle=0;flipH=1;connectable=0;" vertex="1" parent="1">
          <mxGeometry x="145" y="100" width="140" height="140" as="geometry" />
        </mxCell>
        <mxCell id="Lim5dA6-5LxW8TxhvyU3-43" value="" style="verticalLabelPosition=bottom;verticalAlign=top;html=1;shape=mxgraph.basic.pie;fillColor=#e1d5e7;strokeColor=#9673a6;startAngle=0.75;endAngle=0;flipH=0;flipV=1;connectable=0;" vertex="1" parent="1">
          <mxGeometry x="140" y="104" width="140" height="140" as="geometry" />
        </mxCell>
        <mxCell id="Lim5dA6-5LxW8TxhvyU3-44" value="" style="verticalLabelPosition=bottom;verticalAlign=top;html=1;shape=mxgraph.basic.pie;fillColor=#fff2cc;strokeColor=#d6b656;startAngle=0.75;endAngle=0;flipH=1;flipV=1;connectable=0;" vertex="1" parent="1">
          <mxGeometry x="145" y="104" width="140" height="140" as="geometry" />
        </mxCell>
        <mxCell id="Lim5dA6-5LxW8TxhvyU3-48" value="" style="endArrow=classic;html=1;rounded=0;curved=1;edgeStyle=orthogonalEdgeStyle;fillColor=#dae8fc;strokeColor=#6c8ebf;" edge="1" parent="1">
          <mxGeometry width="50" height="50" relative="1" as="geometry">
            <mxPoint x="230" y="90" as="sourcePoint" />
            <mxPoint x="300" y="170" as="targetPoint" />
            <Array as="points">
              <mxPoint x="300" y="90" />
            </Array>
          </mxGeometry>
        </mxCell>
        <mxCell id="Lim5dA6-5LxW8TxhvyU3-49" value="" style="endArrow=classic;html=1;rounded=0;curved=1;edgeStyle=orthogonalEdgeStyle;fillColor=#f8cecc;strokeColor=#b85450;" edge="1" parent="1">
          <mxGeometry width="50" height="50" relative="1" as="geometry">
            <mxPoint x="120" y="170" as="sourcePoint" />
            <mxPoint x="190" y="90" as="targetPoint" />
            <Array as="points">
              <mxPoint x="120" y="90" />
            </Array>
          </mxGeometry>
        </mxCell>
        <mxCell id="Lim5dA6-5LxW8TxhvyU3-50" value="" style="endArrow=classic;html=1;rounded=0;curved=1;edgeStyle=orthogonalEdgeStyle;fillColor=#fff2cc;strokeColor=#d6b656;" edge="1" parent="1">
          <mxGeometry width="50" height="50" relative="1" as="geometry">
            <mxPoint x="299.9999999999998" y="180" as="sourcePoint" />
            <mxPoint x="229.99999999999977" y="260" as="targetPoint" />
            <Array as="points">
              <mxPoint x="299.9999999999998" y="260" />
            </Array>
          </mxGeometry>
        </mxCell>
        <mxCell id="Lim5dA6-5LxW8TxhvyU3-51" value="" style="endArrow=classic;html=1;rounded=0;curved=1;edgeStyle=orthogonalEdgeStyle;fillColor=#e1d5e7;strokeColor=#9673a6;" edge="1" parent="1">
          <mxGeometry width="50" height="50" relative="1" as="geometry">
            <mxPoint x="190" y="260" as="sourcePoint" />
            <mxPoint x="120" y="180" as="targetPoint" />
            <Array as="points">
              <mxPoint x="120" y="260" />
            </Array>
          </mxGeometry>
        </mxCell>
        <mxCell id="Lim5dA6-5LxW8TxhvyU3-52" value="&lt;font style=&quot;font-size: 13px; color: rgb(103, 171, 159);&quot;&gt;P&lt;/font&gt;lan" style="text;html=1;align=center;verticalAlign=middle;whiteSpace=wrap;rounded=0;" vertex="1" parent="1">
          <mxGeometry x="150" y="130" width="60" height="30" as="geometry" />
        </mxCell>
        <mxCell id="Lim5dA6-5LxW8TxhvyU3-53" value="&lt;font style=&quot;font-size: 13px; color: rgb(103, 171, 159);&quot;&gt;D&lt;/font&gt;o" style="text;html=1;align=center;verticalAlign=middle;whiteSpace=wrap;rounded=0;" vertex="1" parent="1">
          <mxGeometry x="212" y="130" width="60" height="30" as="geometry" />
        </mxCell>
        <mxCell id="Lim5dA6-5LxW8TxhvyU3-54" value="&lt;font style=&quot;font-size: 13px; color: rgb(103, 171, 159);&quot;&gt;A&lt;/font&gt;ct" style="text;html=1;align=center;verticalAlign=middle;whiteSpace=wrap;rounded=0;" vertex="1" parent="1">
          <mxGeometry x="150" y="190" width="60" height="30" as="geometry" />
        </mxCell>
        <mxCell id="Lim5dA6-5LxW8TxhvyU3-55" value="&lt;font style=&quot;font-size: 13px; color: rgb(103, 171, 159);&quot;&gt;C&lt;/font&gt;heck" style="text;html=1;align=center;verticalAlign=middle;whiteSpace=wrap;rounded=0;" vertex="1" parent="1">
          <mxGeometry x="212" y="190" width="60" height="30" as="geometry" />
        </mxCell>
      </root>
    </mxGraphModel>
  </diagram>
</mxfile>
